# xmcd
#
# Track frame offsets: 
#        150
#        3483
#        18613
#        33229
#        47379
#        63649
#        86796
#        103994
#        118751
#        136388
#        155447
#        179329
#        182769
#        201151
#
# Disc length: 2987 seconds
#
# Revision: 0
# Processed by: cddbd v1.5.2PL0 Copyright (c) Steve Scherf et al.
# Submitted via: ExactAudioCopy v1.1
#
DISCID=c10ba90e
DTITLE=Erica Campbell - Help 2.0
DYEAR=2015
DGENRE=Gospel
TTITLE0=Warryn and Erica Convo #1
TTITLE1=More Than A Lover Remix (f. Mr. Talkbox)
TTITLE2=More Love
TTITLE3=I Luh God (f. Big Shizz)
TTITLE4=Eddie Remix (f. Jubu)
TTITLE5=All I Need Is You Remix (f. Jonathan McReynolds)
TTITLE6=I'm A Fan (f. Jason Crabb)
TTITLE7=Nobody Else (Thriller Mix)
TTITLE8=A Little More Jesus (f. Fantasia and Lisa Knowles)
TTITLE9=P.O.G. Remix
TTITLE10=The Question Classic Rock Mix
TTITLE11=Warryn and Erica Convo #2
TTITLE12=Looking Like
TTITLE13=Help (f. Lecrae)
EXTD=
EXTT0=
EXTT1=
EXTT2=
EXTT3=
EXTT4=
EXTT5=
EXTT6=
EXTT7=
EXTT8=
EXTT9=
EXTT10=
EXTT11=
EXTT12=
EXTT13=
PLAYORDER=
